# 3ds Max Wavefront OBJ Exporter v0.97b - (c)2007 guruware
# File Created: 24.08.2019 12:52:10

mtllib Cube.mtl

#
# object Box001
#

v  -0.0500 -0.0500 0.0500
v  -0.0500 -0.0500 -0.0500
v  0.0500 -0.0500 -0.0500
v  0.0500 -0.0500 0.0500
v  -0.0500 0.0500 0.0500
v  0.0500 0.0500 0.0500
v  0.0500 0.0500 -0.0500
v  -0.0500 0.0500 -0.0500
# 8 vertices

vn -0.5774 -0.5774 0.5774
vn -0.5774 -0.5774 -0.5774
vn 0.5774 -0.5774 -0.5774
vn 0.5774 -0.5774 0.5774
vn -0.5774 0.5774 0.5774
vn 0.5774 0.5774 0.5774
vn 0.5774 0.5774 -0.5774
vn -0.5774 0.5774 -0.5774
# 8 vertex normals

vt 0.7498 0.7498 0.0000
vt 0.5000 0.7497 0.0000
vt 0.5000 0.5000 0.0000
vt 0.7498 0.5000 0.0000
vt 0.0005 0.7497 0.0000
vt 0.0005 0.5000 0.0000
vt 0.2503 0.5000 0.0000
vt 0.2503 0.7497 0.0000
vt 0.5000 0.0005 0.0000
vt 0.5000 0.2502 0.0000
vt 0.2502 0.2502 0.0000
vt 0.2502 0.0005 0.0000
vt 0.5000 0.9995 0.0000
vt 0.2503 0.9995 0.0000
# 14 texture coords

o Box001
g Box001
usemtl 02___Default
s 2
f 1/1/1 2/2/2 3/3/3 4/4/4 
s 4
f 5/5/5 6/6/6 7/7/7 8/8/8 
s 8
f 1/9/1 4/10/4 6/11/6 5/12/5 
s 16
f 4/10/4 3/3/3 7/7/7 6/11/6 
s 32
f 3/3/3 2/2/2 8/8/8 7/7/7 
s 64
f 2/2/2 1/13/1 5/14/5 8/8/8 
# 6 polygons

