# File produced by Open Asset Import Library (http://www.assimp.sf.net)
# (assimp v3.1.187496374)

mtllib Cube.obj.mtl

# 8 vertex positions
v  -0.5 2.18557e-08 0.5
v  -0.5 -2.18557e-08 -0.5
v  0.5 -2.18557e-08 -0.5
v  0.5 2.18557e-08 0.5
v  -0.5 1 0.5
v  0.5 1 0.5
v  0.5 1 -0.5
v  -0.5 1 -0.5

# 4 UV coordinates
vt 1 0 0
vt 1 1 0
vt 0 1 0
vt 0 0 0

# 6 vertex normals
vn 0 -1 4.37114e-08
vn 0 1 -4.37114e-08
vn 0 4.37114e-08 1
vn 1 0 0
vn 0 -4.37114e-08 -1
vn -1 0 -0

# Mesh 'Box001' with 12 faces
g Box001
usemtl DefaultMaterial
f  1/1/1 2/2/1 3/3/1
f  1/1/1 3/3/1 4/4/1
f  5/4/2 6/1/2 7/2/2
f  5/4/2 7/2/2 8/3/2
f  1/4/3 4/1/3 6/2/3
f  1/4/3 6/2/3 5/3/3
f  4/4/4 3/1/4 7/2/4
f  4/4/4 7/2/4 6/3/4
f  3/4/5 2/1/5 8/2/5
f  3/4/5 8/2/5 7/3/5
f  2/4/6 1/1/6 5/2/6
f  2/4/6 5/2/6 8/3/6

